<svg xmlns="http://www.w3.org/2000/svg" viewBox="0 0 32 32" id="remote">
  <path d="M23.5 29.45a6.473 6.473 0 0 1-5.918-3.9h-3.163a6.472 6.472 0 0 1-5.918 3.9c-3.557 0-6.45-2.894-6.45-6.45s2.894-6.45 6.45-6.45v.003a.42.42 0 0 1 .05-.003h15c.021 0 .041.001.061.004 3.501.06 6.34 2.939 6.34 6.446a6.46 6.46 0 0 1-6.452 6.45zm-9.42-4.9h3.84a.5.5 0 0 1 .469.327A5.467 5.467 0 0 0 23.5 28.45 5.456 5.456 0 0 0 28.95 23c0-2.979-2.424-5.422-5.404-5.447a.42.42 0 0 1-.05-.003H8.603a.384.384 0 0 1-.083.002h-.004c-3.023 0-5.466 2.444-5.466 5.448a5.456 5.456 0 0 0 5.45 5.45 5.47 5.47 0 0 0 5.111-3.573.5.5 0 0 1 .469-.327z"></path>
  <path d="M8.55 26.55a.5.5 0 0 1-.5-.5v-6a.5.5 0 0 1 1 0v6a.5.5 0 0 1-.5.5z"></path>
  <path d="M11.55 23.55h-6a.5.5 0 0 1 0-1h6a.5.5 0 0 1 0 1zm3-2h-1a.5.5 0 0 1 0-1h1a.5.5 0 0 1 0 1zm4 0h-1a.5.5 0 0 1 0-1h1a.5.5 0 0 1 0 1zm5 .5c-.827 0-1.5-.673-1.5-1.5s.673-1.5 1.5-1.5 1.5.673 1.5 1.5-.673 1.5-1.5 1.5zm0-2a.5.5 0 1 0 .002 1.002.5.5 0 0 0-.002-1.002zm0 7c-.827 0-1.5-.673-1.5-1.5s.673-1.5 1.5-1.5 1.5.673 1.5 1.5-.673 1.5-1.5 1.5zm0-2a.5.5 0 1 0 .002 1.002.5.5 0 0 0-.002-1.002zm3-.552c-.827 0-1.5-.673-1.5-1.5s.673-1.5 1.5-1.5 1.5.673 1.5 1.5-.673 1.5-1.5 1.5zm0-2a.5.5 0 1 0 .002 1.002.5.5 0 0 0-.002-1.002zm-6 2.052c-.827 0-1.5-.673-1.5-1.5s.673-1.5 1.5-1.5 1.5.673 1.5 1.5-.673 1.5-1.5 1.5zm0-2a.5.5 0 1 0 .002 1.002.5.5 0 0 0-.002-1.002zm-3.5-5h-2a.5.5 0 0 1-.5-.5v-1c0-.827.673-1.5 1.5-1.5s1.5.673 1.5 1.5v1a.5.5 0 0 1-.5.5zm-1.5-1h1v-.5a.5.5 0 0 0-1 0v.5z"></path>
  <path d="M16 15.55a.5.5 0 0 1-.5-.5v-1.5c0-.552-.449-1-1-1h-1a.5.5 0 0 1 0-1h1c1.103 0 2 .897 2 2v1.5a.5.5 0 0 1-.5.5zm2-9h-1c-1.103 0-2-.897-2-2v-1.5a.5.5 0 0 1 1 0v1.5c0 .552.449 1 1 1h1a.5.5 0 0 1 0 1z"></path>
  <path d="M14.05 12.55h-1c-1.103 0-2-.897-2-2s.897-2 2-2h5a1.001 1.001 0 0 0 0-2h-.5a.5.5 0 0 1 0-1h.5c1.103 0 2 .897 2 2s-.897 2-2 2h-5a1.001 1.001 0 0 0 0 2h1a.5.5 0 0 1 0 1z"></path>
</svg>
