<svg xmlns="http://www.w3.org/2000/svg" width="32" height="32" id="olympics">
  <path d="M6.5 1031.362a.5.5 0 0 0-.5.5v1.5H3.5a.5.5 0 0 0-.5.5v1.5H1.5a.5.5 0 0 0-.5.5v2a.5.5 0 0 0 .5.5H3v1.5a.5.5 0 0 0 .5.5H6v1.5a.5.5 0 0 0 .5.5h3a.5.5 0 0 0 .5-.5v-3.5h12v3.5a.5.5 0 0 0 .5.5h3a.5.5 0 0 0 .5-.5v-1.5h2.5a.5.5 0 0 0 .5-.5v-1.5h1.5a.5.5 0 0 0 .5-.5v-2a.5.5 0 0 0-.5-.5H29v-1.5a.5.5 0 0 0-.5-.5H26v-1.5a.5.5 0 0 0-.5-.5h-3a.5.5 0 0 0-.5.5v3.5H10v-3.5a.5.5 0 0 0-.5-.5zm.5 1h2v3.418a.501.501 0 0 0 0 .164v1.836a.501.501 0 0 0 0 .164v3.418H7v-7.5zm16 0h2v9h-2v-3.422a.5.5 0 0 0 0-.16v-1.84a.5.5 0 0 0 0-.16zm-19 2h2v5H4v-1.422a.5.5 0 0 0 0-.16v-1.84a.5.5 0 0 0 0-.16zm22 0h2v5h-2zm-24 2h1v1H2zm8 0h12v1H10zm19 0h1v1h-1z" style="color:#000;font-style:normal;font-variant:normal;font-weight:400;font-stretch:normal;font-size:medium;line-height:normal;font-family:sans-serif;text-indent:0;text-align:start;text-decoration:none;text-decoration-line:none;text-decoration-style:solid;text-decoration-color:#000;letter-spacing:normal;word-spacing:normal;text-transform:none;direction:ltr;block-progression:tb;writing-mode:lr-tb;baseline-shift:baseline;text-anchor:start;white-space:normal;clip-rule:nonzero;display:inline;overflow:visible;visibility:visible;opacity:1;isolation:auto;mix-blend-mode:normal;color-interpolation:sRGB;color-interpolation-filters:linearRGB;solid-color:#000;solid-opacity:1;fill:#000;fill-opacity:1;fill-rule:nonzero;stroke:none;stroke-width:.99999994;stroke-linecap:round;stroke-linejoin:round;stroke-miterlimit:4;stroke-dasharray:none;stroke-dashoffset:0;stroke-opacity:1;color-rendering:auto;image-rendering:auto;shape-rendering:auto;text-rendering:auto;enable-background:accumulate" transform="translate(0 -1020.362)"></path>
</svg>
