<svg xmlns="http://www.w3.org/2000/svg" xml:space="preserve" id="barbell" width="32" height="32" x="0" y="0" version="1.0">
  <g id="g5" transform="matrix(.79404 0 0 .79602 2.039 -17.78)">
    <path id="rect5" d="M4.873 34.827a.78.78 0 0 0-.782.78v1.465H.653a.78.78 0 0 0-.778.78v1.934h-1.661a.78.78 0 0 0-.782.78v3.74a.78.78 0 0 0 .782.782h1.66v1.934a.78.78 0 0 0 .78.78H4.09v1.465a.78.78 0 0 0 .782.78h4.69a.78.78 0 0 0 .781-.78v-4.179H24.82v4.179a.78.78 0 0 0 .782.78H30.2a.78.78 0 0 0 .782-.78v-1.465h3.438a.78.78 0 0 0 .781-.78v-1.934h1.753a.78.78 0 0 0 .778-.783v-3.74a.78.78 0 0 0-.778-.78H35.2v-1.933a.78.78 0 0 0-.781-.78h-3.438v-1.465a.78.78 0 0 0-.782-.78h-4.598a.78.78 0 0 0-.782.78v4.179H10.344v-4.18a.78.78 0 0 0-.781-.779h-4.69zm.782 1.563h3.13v12.097h-3.13V36.39zm20.728 0h3.038v1.407a.78.78 0 0 0 0 .055v10.635h-3.038V44.44a.78.78 0 0 0 .012-.134v-3.74a.78.78 0 0 0-.012-.13V36.39zM1.435 38.634h2.656v7.608H1.435v-7.608zm29.547 0h2.656v7.608h-2.656v-7.608zm-31.99 2.711h.877v2.18h-.877v-2.18zm11.395 0H24.82v2.18H10.387v-2.18zm24.854 0h.931v2.18h-.931v-2.18z" style="color:#000;font-style:normal;font-variant:normal;font-weight:400;font-stretch:normal;font-size:medium;line-height:normal;font-family:sans-serif;text-indent:0;text-align:start;text-decoration:none;text-decoration-line:none;text-decoration-style:solid;text-decoration-color:#000;letter-spacing:normal;word-spacing:normal;text-transform:none;direction:ltr;block-progression:tb;writing-mode:lr-tb;baseline-shift:baseline;text-anchor:start;white-space:normal;clip-rule:nonzero;display:inline;overflow:visible;visibility:visible;opacity:1;isolation:auto;mix-blend-mode:normal;color-interpolation:sRGB;color-interpolation-filters:linearRGB;solid-color:#000;solid-opacity:1;fill:#000;fill-opacity:1;fill-rule:nonzero;stroke:none;stroke-width:1.25781548;stroke-linecap:round;stroke-linejoin:round;stroke-miterlimit:10;stroke-dasharray:none;stroke-dashoffset:0;stroke-opacity:1;color-rendering:auto;image-rendering:auto;shape-rendering:auto;text-rendering:auto;enable-background:accumulate"></path>
  </g>
</svg>
