<svg xmlns="http://www.w3.org/2000/svg" width="16" height="16" id="music">
  <path d="M13 2.004 6 4.338v5.64A1.967 1.967 0 0 0 5 9.7c-1.099 0-2 .902-2 2 0 1.099.901 2 2 2s2-.901 2-2V5.06l5-1.666v5.586a1.967 1.967 0 0 0-1-.28c-1.099 0-2 .902-2 2 0 1.099.901 2 2 2s2-.901 2-2V2.004zm-2 7.695c.558 0 1 .442 1 1 0 .559-.442 1-1 1s-1-.441-1-1c0-.558.442-1 1-1zm-6 1c.558 0 1 .442 1 1 0 .559-.442 1-1 1s-1-.441-1-1c0-.558.442-1 1-1z" color="#000" font-family="sans-serif" font-weight="400" overflow="visible" style="line-height:normal;text-indent:0;text-align:start;text-decoration-line:none;text-decoration-style:solid;text-decoration-color:#000;text-transform:none;block-progression:tb;isolation:auto;mix-blend-mode:normal"></path>
</svg>
