<svg xmlns="http://www.w3.org/2000/svg" width="16" height="16" id="news">
  <path d="M0 2.002v10.482C0 13.336.708 14 1.54 14h12.964C15.29 14 16 13.417 16 12.627V7.002h-2v-5H0zM1 3h12v1.998H1V3zm0 2.998h12V13H1.54c-.242 0-.54-.284-.54-.516V5.998zm1 .994V12h5V6.992H2zM8 7v1h4V7H8zm-5 .992h3V11H3V7.992zM14 8h1v4.625c0 .174-.184.375-.5.375s-.5-.2-.5-.375V8zM8 9v1h4V9H8zm0 2v1h4v-1H8z" color="#000" font-family="sans-serif" font-weight="400" overflow="visible" style="line-height:normal;text-indent:0;text-align:start;text-decoration-line:none;text-decoration-style:solid;text-decoration-color:#000;text-transform:none;block-progression:tb;isolation:auto;mix-blend-mode:normal"></path>
</svg>
