<svg xmlns="http://www.w3.org/2000/svg" viewBox="0 0 512 512" id="online-streaming">
  <path fill="#272a33" d="M474.5 49.657H345.193a104.554 104.554 0 0 0-178.386 0H37.5A37.542 37.542 0 0 0 0 87.157v295a37.542 37.542 0 0 0 37.5 37.5h156.12a54.443 54.443 0 0 1-5.917 36.628l-16.415 29.324a17.5 17.5 0 0 0 15.27 26.048h138.884a17.5 17.5 0 0 0 15.27-26.048l-16.415-29.324a54.443 54.443 0 0 1-5.918-36.628H474.5a37.542 37.542 0 0 0 37.5-37.5v-295a37.542 37.542 0 0 0-37.5-37.5Zm-218.5-35a89.616 89.616 0 1 1-89.616 89.616A89.718 89.718 0 0 1 256 14.657Zm71.624 478.278a2.5 2.5 0 0 1-2.182 3.722H186.558a2.5 2.5 0 0 1-2.182-3.722l16.415-29.324a69.52 69.52 0 0 0 8.027-43.954h94.364a69.52 69.52 0 0 0 8.026 43.954ZM497 382.157a22.526 22.526 0 0 1-22.5 22.5h-437a22.526 22.526 0 0 1-22.5-22.5v-32.5h482Zm0-47.5H15v-247.5a22.525 22.525 0 0 1 22.5-22.5h121.682a104.616 104.616 0 1 0 193.636 0H474.5a22.525 22.525 0 0 1 22.5 22.5Zm-37.5-53.5H183.05a30.004 30.004 0 0 0-58.1 0H52.5a7.5 7.5 0 0 0 0 15h72.45a30.004 30.004 0 0 0 58.1 0H459.5a7.5 7.5 0 0 0 0-15Zm-305.5 22.5a15 15 0 1 1 15-15 15.017 15.017 0 0 1-15 15Zm79.598-153.298a11.795 11.795 0 0 0 12.14-.606l53.254-35.661a11.817 11.817 0 0 0 0-19.637l-53.255-35.661a11.816 11.816 0 0 0-18.39 9.818v71.323a11.796 11.796 0 0 0 6.25 10.424Zm8.748-75.783 44.349 29.697-44.349 29.698Z"></path>
</svg>
